<?xml version="1.0" encoding="UTF-8"?>
<svg id="Layer_1" xmlns="http://www.w3.org/2000/svg" viewBox="0 0 960.56 1055.87">
  <defs>
    <style>
      .cls-1 {
        fill: #8dc63f;
      }

      .cls-2 {
        fill: #dc5758;
      }

      .cls-3 {
        fill: #c22026;
      }

      .cls-4 {
        fill: #263b7e;
      }

      .cls-5 {
        fill: #fff;
      }

      .cls-6 {
        fill: #f7941d;
      }

      .cls-7 {
        fill: #754c29;
      }
    </style>
  </defs>
  <g>
    <path class="cls-3" d="M28.23,486.28c-3.14,5.46-1.17,12.75,4.29,15.89l7.68,4.42c18.23,10.48,24.56,33.95,14.08,52.18-.58,1.02-.74,1.3-1.33,2.31l-23.14-13.3c.59-1.02.75-1.3,1.33-2.31,3.09-5.37,1.12-12.66-4.25-15.74l-7.68-4.42c-18.32-10.54-24.66-34-14.12-52.33.58-1.02.74-1.3,1.33-2.31l23.14,13.3c-.59,1.02-.75,1.3-1.33,2.31Z"/>
    <path class="cls-3" d="M8.28,449.47l15.95-21.4,17.89,13.33,8.48-11.38,21.4,15.95-8.48,11.39,3.51,2.61c5.05,3.76,12.52,2.67,16.22-2.29.7-.94.89-1.2,1.59-2.14l21.4,15.95c-.7.94-.89,1.2-1.59,2.14-12.56,16.86-36.62,20.38-53.56,7.75l-3.51-2.61-3.57,4.79-21.4-15.95,3.57-4.79-17.89-13.33Z"/>
    <path class="cls-3" d="M70.85,390.09c6.16,5.61,6.61,15.26,1.01,21.42-5.61,6.16-15.19,6.53-21.34.93-6.08-5.53-6.6-15.11-1-21.27,5.61-6.16,15.26-6.61,21.34-1.08ZM124.26,441.17l-17.97,19.74-40.82-37.16,17.97-19.74,40.82,37.16Z"/>
    <path class="cls-3" d="M198.81,405.47l-62.7-4.72,13.69,15.96-20.26,17.38-55.81-65.06,62.77,4.8-13.69-15.96,20.26-17.38,55.74,64.98Z"/>
    <path class="cls-3" d="M203.36,406.8l-57.67-95.5,22.85-13.8,20.59,34.09,5.42-31.71,26.16,4.28-3.49,20.44,30.21,11.19-9.12,24.96-25.31-9.28-9.62,55.32Z"/>
    <path class="cls-3" d="M280.7,257.53l24.66,10.69-15.31,35.32,15.93,40.3-24.82,9.81-15.93-40.31-35.42-15.27,10.69-24.66,28.12,12.19,12.09-28.08Z"/>
    <path class="cls-3" d="M391.85,277.62l26.46-3.5,3.5,26.46-52.92,7-11.08-83.82,26.46-3.5,7.58,57.36Z"/>
    <path class="cls-3" d="M454.63,268.79c-.13,6.3,5.11,11.63,11.4,11.76,6.19.12,11.63-5,11.76-11.3.02-1.17.62-31.06.62-31.06l26.68.53s-.6,29.89-.62,31.06c-.42,21.13-17.95,37.87-38.98,37.45-21.13-.42-37.98-17.84-37.55-38.98.02-1.17.62-31.06.62-31.06l26.68.53s-.6,29.89-.62,31.06Z"/>
    <path class="cls-3" d="M574.76,338.23l-35.26-52.06-4,20.65-26.2-5.07,16.3-84.16,35.24,52.17,4-20.65,26.2,5.07-16.28,84.06Z"/>
    <path class="cls-3" d="M640.48,295.89c-1.24-2.83-3.58-5.16-6.69-6.29-6.02-2.18-12.58.89-14.77,6.91s.89,12.58,6.91,14.77c3.11,1.13,6.39.84,9.17-.54l10.64,24.52c-8.82,3.96-19.07,4.67-28.9,1.11-19.87-7.2-30.11-29.08-22.91-48.95,7.2-19.87,29.08-30.11,48.95-22.9,9.83,3.56,17.25,10.68,21.48,19.37l-23.88,12.01Z"/>
    <path class="cls-3" d="M709.6,318.53l6.44-11.69,23.37,12.89-30.05,54.51-23.37-12.89,10.72-19.45-15.61-8.61-10.72,19.45-23.37-12.89,40.82-74.04,23.37,12.89-17.22,31.23,15.61,8.61Z"/>
    <path class="cls-3" d="M808.07,405.67c-.03-3.1-1.27-6.15-3.68-8.41-4.68-4.37-11.92-4.13-16.29.55-4.37,4.68-4.13,11.92.55,16.29,2.42,2.26,5.55,3.29,8.64,3.1l.15,26.73c-9.66.18-19.37-3.19-27.01-10.34-15.45-14.43-16.27-38.57-1.84-54.01s38.57-16.27,54.01-1.84c7.64,7.14,11.67,16.6,12.15,26.25l-26.68,1.66Z"/>
    <path class="cls-3" d="M834.13,453.11l11.37,13.73-20.56,17.02-28.38-34.3,65.14-53.91,17.02,20.56-44.58,36.89Z"/>
    <path class="cls-3" d="M870.51,495.51c-5.38,3.27-7.08,10.55-3.8,15.93,3.22,5.29,10.46,7.13,15.84,3.86,1-.61,26.54-16.15,26.54-16.15l13.87,22.8s-25.54,15.53-26.54,16.14c-18.06,10.99-41.58,5.18-52.51-12.79-10.99-18.06-5.33-41.62,12.73-52.6,1-.61,26.54-16.15,26.54-16.15l13.87,22.8s-25.54,15.53-26.54,16.15Z"/>
    <path class="cls-3" d="M950.62,569.68c7.67,19.7-2.05,41.81-21.74,49.48-19.7,7.67-41.81-2.05-49.48-21.74-1.47-3.78-2.27-7.59-2.49-11.4l-3.38,1.32-9.69-24.87,87.04-33.9,9.69,24.87-15.82,6.16c2.41,2.96,4.4,6.3,5.88,10.08ZM910.83,572.81c-5.97,2.32-8.88,8.96-6.56,14.93,2.33,5.97,8.96,8.88,14.93,6.56,5.97-2.32,8.88-8.96,6.56-14.93-2.32-5.97-8.96-8.88-14.93-6.56Z"/>
  </g>
  <polygon class="cls-3" points="273.52 577.02 362.01 710.22 700.47 767.77 611.57 624.06 273.52 577.02"/>
  <polygon class="cls-2" points="171.88 793.82 362.01 710.22 700.47 767.77 523.29 861.31 171.88 793.82"/>
  <path class="cls-5" d="M260.93,793.97s12.09-39.88,33.84-29.01c21.75,10.88,43.51-1.88,43.51-1.88,0,0,55.6-10.32,44.72,10.89-10.88,21.21,36.43,29.67,23.65,49.01-12.78,19.34,4.15,47.14-26.07,39.88s-114.82,24.17-135.36-16.92c-20.55-41.09-49.55-59.22-16.92-55.6"/>
  <path class="cls-6" d="M446.29,757.79s2.82-61.65,64.9-33.43c62.07,28.22,19.75,9.41,47.97,8.94s62.07,13.63,53.61,37.62c-8.46,23.98,23.98,100.17-19.75,80.42-43.73-19.75-110.04-4.43-122.74-36.08-12.7-31.64-66.31-22.75-45.15-40.11"/>
  <path class="cls-7" d="M535.92,812.22c0,16.95-26.33,18.12-66.57,18.12s-83.58,18.43-83.58,1.48,37.06-50.3,77.29-50.3,72.85,13.74,72.85,30.7Z"/>
  <path class="cls-2" d="M417.44,469.8l9.14-18.43c3.36-6.79,10.68-10.67,18.19-9.66l137.83,18.61c9.23,1.25,15.19,10.41,12.58,19.35l-4.06,13.9-173.67-23.77Z"/>
  <path class="cls-7" d="M523.53,787.73c0,16.95-26.33,18.12-66.57,18.12s-83.58,18.43-83.58,1.48,37.06-50.3,77.29-50.3,72.85,13.74,72.85,30.7Z"/>
  <path class="cls-1" d="M555.58,845.62c0,28.48-45.52,51.56-74,51.56s-72.73-23.09-72.73-51.56,44.25-51.56,72.73-51.56,74,23.09,74,51.56Z"/>
  <g>
    <path class="cls-4" d="M700.47,767.77l-177.18,93.54-351.41-67.5,7.89,152.35c-3.78,28.21,20.01,55.28,48.21,59.06l230.22,50.62c20.92.26,38.85-1.64,53.19-6.24,13.62-4.05,54.92-20.43,85.42-40.76l79.82-55.45c33.48-28.31,30.97-75.94,30.97-109.79l-7.14-75.83Z"/>
    <path class="cls-4" d="M724.17,624.06c-40.73-44.71-74.28-113.94-74.28-113.94l-.34,1.02c-5.49-7.3-15.11-12.48-30.48-14.22-86.23-9.8-245.61-33.55-245.61-33.55,0,0-87.48-16.48-99.95,113.66l338.05,47.03,88.9,143.72s64.43-99.01,23.7-143.72Z"/>
  </g>
  <path class="cls-7" d="M518.36,759c0,16.95-26.33,18.12-66.57,18.12s-83.58,18.43-83.58,1.48,37.06-50.3,77.29-50.3,72.85,13.74,72.85,30.7Z"/>
</svg>