<?xml version="1.0" encoding="UTF-8"?>
<svg xmlns="http://www.w3.org/2000/svg" version="1.1" viewBox="0 0 960.6 1055.9">
  <defs>
    <style>
      .cls-1 {
        fill: #e8d3cc;
      }

      .cls-2 {
        fill: #8dc63f;
      }

      .cls-3 {
        fill: #fff;
      }

      .cls-4 {
        fill: #754c29;
      }

      .cls-5 {
        fill: #3e70b7;
      }

      .cls-6 {
        fill: #dc5658;
      }

      .cls-7 {
        fill: #f7941d;
      }

      .cls-8 {
        fill: #e16e58;
      }
    </style>
  </defs>
  <!-- Generator: Adobe Illustrator 28.7.1, SVG Export Plug-In . SVG Version: 1.2.0 Build 142)  -->
  <g>
    <g id="Layer_1">
      <g id="Layer_1-2" data-name="Layer_1">
        <g>
          <path class="cls-1" d="M28.2,486.3c-3.1,5.5-1.2,12.8,4.3,15.9l7.7,4.4c18.2,10.5,24.6,34,14.1,52.2-.6,1-.7,1.3-1.3,2.3l-23.1-13.3c.6-1,.8-1.3,1.3-2.3,3.1-5.4,1.1-12.7-4.2-15.7l-7.7-4.4c-18.3-10.5-24.7-34-14.1-52.3.6-1,.7-1.3,1.3-2.3l23.1,13.3c-.6,1-.8,1.3-1.3,2.3h-.1Z"/>
          <path class="cls-1" d="M8.3,449.5l15.9-21.4,17.9,13.3,8.5-11.4,21.4,16-8.5,11.4,3.5,2.6c5.1,3.8,12.5,2.7,16.2-2.3.7-.9.9-1.2,1.6-2.1l21.4,16c-.7.9-.9,1.2-1.6,2.1-12.6,16.9-36.6,20.4-53.6,7.8l-3.5-2.6-3.6,4.8-21.4-16,3.6-4.8-17.9-13.3h0Z"/>
          <path class="cls-1" d="M70.8,390.1c6.2,5.6,6.6,15.3,1,21.4-5.6,6.2-15.2,6.5-21.3.9-6.1-5.5-6.6-15.1-1-21.3,5.6-6.2,15.3-6.6,21.3-1.1h0ZM124.3,441.2l-18,19.7-40.8-37.2,18-19.7,40.8,37.2Z"/>
          <path class="cls-1" d="M198.8,405.5l-62.7-4.7,13.7,16-20.3,17.4-55.8-65.1,62.8,4.8-13.7-16,20.3-17.4,55.7,65h0Z"/>
          <path class="cls-1" d="M203.4,406.8l-57.7-95.5,22.9-13.8,20.6,34.1,5.4-31.7,26.2,4.3-3.5,20.4,30.2,11.2-9.1,25-25.3-9.3-9.6,55.3h0Z"/>
          <path class="cls-1" d="M280.7,257.5l24.7,10.7-15.3,35.3,15.9,40.3-24.8,9.8-15.9-40.3-35.4-15.3,10.7-24.7,28.1,12.2,12.1-28.1h-.1Z"/>
          <path class="cls-1" d="M391.9,277.6l26.5-3.5,3.5,26.5-52.9,7-11.1-83.8,26.5-3.5,7.6,57.4h-.1Z"/>
          <path class="cls-1" d="M454.6,268.8c-.1,6.3,5.1,11.6,11.4,11.8,6.2.1,11.6-5,11.8-11.3,0-1.2.6-31.1.6-31.1l26.7.5s-.6,29.9-.6,31.1c-.4,21.1-18,37.9-39,37.5-21.1-.4-38-17.8-37.5-39,0-1.2.6-31.1.6-31.1l26.7.5s-.6,29.9-.6,31.1h-.1Z"/>
          <path class="cls-1" d="M574.8,338.2l-35.3-52.1-4,20.6-26.2-5.1,16.3-84.2,35.2,52.2,4-20.6,26.2,5.1-16.3,84.1h0Z"/>
          <path class="cls-1" d="M640.5,295.9c-1.2-2.8-3.6-5.2-6.7-6.3-6-2.2-12.6.9-14.8,6.9s.9,12.6,6.9,14.8c3.1,1.1,6.4.8,9.2-.5l10.6,24.5c-8.8,4-19.1,4.7-28.9,1.1-19.9-7.2-30.1-29.1-22.9-49,7.2-19.9,29.1-30.1,49-22.9,9.8,3.6,17.2,10.7,21.5,19.4l-23.9,12h0Z"/>
          <path class="cls-1" d="M709.6,318.5l6.4-11.7,23.4,12.9-30,54.5-23.4-12.9,10.7-19.5-15.6-8.6-10.7,19.5-23.4-12.9,40.8-74,23.4,12.9-17.2,31.2,15.6,8.6h0Z"/>
          <path class="cls-1" d="M808.1,405.7c0-3.1-1.3-6.1-3.7-8.4-4.7-4.4-11.9-4.1-16.3.5s-4.1,11.9.5,16.3c2.4,2.3,5.5,3.3,8.6,3.1l.2,26.7c-9.7.2-19.4-3.2-27-10.3-15.5-14.4-16.3-38.6-1.8-54s38.6-16.3,54-1.8c7.6,7.1,11.7,16.6,12.2,26.2l-26.7,1.7h0Z"/>
          <path class="cls-1" d="M834.1,453.1l11.4,13.7-20.6,17-28.4-34.3,65.1-53.9,17,20.6-44.6,36.9h0Z"/>
          <path class="cls-1" d="M870.5,495.5c-5.4,3.3-7.1,10.5-3.8,15.9,3.2,5.3,10.5,7.1,15.8,3.9,1-.6,26.5-16.1,26.5-16.1l13.9,22.8s-25.5,15.5-26.5,16.1c-18.1,11-41.6,5.2-52.5-12.8-11-18.1-5.3-41.6,12.7-52.6,1-.6,26.5-16.1,26.5-16.1l13.9,22.8s-25.5,15.5-26.5,16.1h0Z"/>
          <path class="cls-1" d="M950.6,569.7c7.7,19.7-2,41.8-21.7,49.5s-41.8-2-49.5-21.7c-1.5-3.8-2.3-7.6-2.5-11.4l-3.4,1.3-9.7-24.9,87-33.9,9.7,24.9-15.8,6.2c2.4,3,4.4,6.3,5.9,10.1h0ZM910.8,572.8c-6,2.3-8.9,9-6.6,14.9,2.3,6,9,8.9,14.9,6.6s8.9-9,6.6-14.9-9-8.9-14.9-6.6Z"/>
        </g>
        <polygon class="cls-6" points="273.5 577 362 710.2 700.5 767.8 611.6 624.1 273.5 577"/>
        <polygon class="cls-8" points="171.9 793.8 362 710.2 700.5 767.8 523.3 861.3 171.9 793.8"/>
        <path class="cls-3" d="M260.9,794s12.1-39.9,33.8-29c21.8,10.9,43.5-1.9,43.5-1.9,0,0,55.6-10.3,44.7,10.9s36.4,29.7,23.6,49,4.1,47.1-26.1,39.9-114.8,24.2-135.4-16.9c-20.6-41.1-49.6-59.2-16.9-55.6"/>
        <path class="cls-7" d="M446.3,757.8s2.8-61.7,64.9-33.4c62.1,28.2,19.8,9.4,48,8.9s62.1,13.6,53.6,37.6,24,100.2-19.8,80.4-110-4.4-122.7-36.1c-12.7-31.6-66.3-22.8-45.1-40.1"/>
        <path class="cls-4" d="M535.9,812.2c0,17-26.3,18.1-66.6,18.1s-83.6,18.4-83.6,1.5,37.1-50.3,77.3-50.3,72.9,13.7,72.9,30.7h0Z"/>
        <path class="cls-8" d="M417.4,469.8l9.1-18.4c3.4-6.8,10.7-10.7,18.2-9.7l137.8,18.6c9.2,1.2,15.2,10.4,12.6,19.4l-4.1,13.9-173.7-23.8h.1Z"/>
        <path class="cls-4" d="M523.5,787.7c0,17-26.3,18.1-66.6,18.1s-83.6,18.4-83.6,1.5,37.1-50.3,77.3-50.3,72.9,13.7,72.9,30.7h0Z"/>
        <path class="cls-2" d="M555.6,845.6c0,28.5-45.5,51.6-74,51.6s-72.7-23.1-72.7-51.6,44.2-51.6,72.7-51.6,74,23.1,74,51.6Z"/>
        <g>
          <path class="cls-5" d="M700.5,767.8l-177.2,93.5-351.4-67.5,7.9,152.4c-3.8,28.2,20,55.3,48.2,59.1l230.2,50.6c20.9.3,38.9-1.6,53.2-6.2,13.6-4.1,54.9-20.4,85.4-40.8l79.8-55.5c33.5-28.3,31-75.9,31-109.8l-7.1-75.8h0Z"/>
          <path class="cls-5" d="M724.2,624.1c-40.7-44.7-74.3-113.9-74.3-113.9l-.3,1c-5.5-7.3-15.1-12.5-30.5-14.2-86.2-9.8-245.6-33.5-245.6-33.5,0,0-87.5-16.5-100,113.7l338,47,88.9,143.7s64.4-99,23.7-143.7h0Z"/>
        </g>
        <path class="cls-4" d="M518.4,759c0,17-26.3,18.1-66.6,18.1s-83.6,18.4-83.6,1.5,37.1-50.3,77.3-50.3,72.9,13.7,72.9,30.7h0Z"/>
      </g>
    </g>
  </g>
</svg>