<?xml version="1.0" encoding="UTF-8"?>
<svg xmlns="http://www.w3.org/2000/svg" viewBox="0 0 72 72">
  <defs>
    <style>
      .cls-1 {
        fill: #667097;
      }

      .cls-1, .cls-2 {
        stroke-width: 0px;
      }

      .cls-2 {
        fill: #fff;
      }
    </style>
  </defs>
  <g id="Layer_2" data-name="Layer 2">
    <circle class="cls-1" cx="36" cy="36" r="36"/>
  </g>
  <g id="Layer_3" data-name="Layer 3">
    <path class="cls-2" d="m60.9,39.66c-2.57,9.04-7.84,17.77-24.9,23.43-14.2,4.71-31.89-12.92-27.09-27.09,3.53-10.42,17.88-18.44,28.04-22.24,22.43-8.39,29.27,7.19,23.95,25.9Z"/>
  </g>
  <g id="Layer_5" data-name="Layer 5">
    <path class="cls-1" d="m13.14,42.02l3.75,2.04,4.34-3.97.59,1.13,9.14-4.99-6.44,4.76c-.1.23,3.43,2.05,7.73,1.36,2.79-.45,5.79-1.72,7.83-4.05,2.31-2.63,3.39-6.61,1.54-12.29l2.23-1.25-2.58-1.25s-4.34-6.81-8.79.45c0,0-15.7,17.58-19.33,18.04Z"/>
    <polygon class="cls-1" points="43.27 37.87 39.37 37.32 41.04 36.56 45.21 36.57 43.27 37.87"/>
    <polyline class="cls-1" points="30.9 42.5 34.48 45.54 35.61 44.93 32.24 42.36"/>
    <path class="cls-1" d="m12.64,54.91c1.41-.14,2.81-.59,4.16-.99,1.72-.51,3.44-1.05,5.13-1.64,3.81-1.32,7.45-3.15,10.88-5.26,7.92-4.87,15.09-11.49,19.79-19.57,2.48-4.26,4.21-8.94,4.72-13.86.07-.64-.93-.63-1,0-.91,8.8-5.9,16.72-11.96,22.95-3.25,3.34-6.89,6.29-10.79,8.82-3.45,2.23-7.15,4.24-11.02,5.64-1.71.62-3.45,1.18-5.2,1.71-1.52.46-3.12,1.03-4.71,1.19-.63.06-.64,1.06,0,1h0Z"/>
  </g>
</svg>